<svg width="72" height="45" viewBox="0 0 72 45" fill="none" xmlns="http://www.w3.org/2000/svg">
<path d="M48.5986 37.2784C49.0745 47.0671 63.0106 47.0586 63.4848 37.2784H68.618C68.9379 37.2752 69.2535 37.2038 69.5437 37.069C69.8338 36.9341 70.0919 36.739 70.3007 36.4965C72.2027 34.4399 72.1704 28.4806 71.8016 23.8438C71.5415 20.5446 70.0611 16.2647 67.9381 12.6766C66.4882 10.2256 63.5188 6.11392 59.9749 6.12412C57.2791 6.13601 52.2581 6.12412 49.2343 6.12412V1.2748C49.2343 0.936698 49.1 0.61245 48.8609 0.373379C48.6218 0.134309 48.2976 0 47.9595 0H2.23174C1.89365 0 1.5694 0.134309 1.33033 0.373379C1.09125 0.61245 0.956946 0.936698 0.956946 1.2748V28.705C0.956946 29.0431 1.09125 29.3673 1.33033 29.6064C1.5694 29.8455 1.89365 29.9798 2.23174 29.9798H4.57057V31.1696L2.54959 32.0908C2.44251 30.4336 0.056091 30.4693 0 32.1316V35.6059C0 35.944 0.134309 36.2682 0.373379 36.5073C0.61245 36.7464 0.936699 36.8807 1.2748 36.8807C1.61289 36.8807 1.93714 36.7464 2.17621 36.5073C2.41528 36.2682 2.54959 35.944 2.54959 35.6059V34.892L4.56887 33.9707V36.0104C4.56887 36.3485 4.70318 36.6728 4.94225 36.9118C5.18132 37.1509 5.50557 37.2852 5.84366 37.2852H10.6454C11.123 47.0739 25.0591 47.0654 25.5316 37.2852L48.5986 37.2784ZM69.3931 26.1792C69.444 27.3197 69.4559 28.3259 69.4372 29.2064C68.4174 28.9905 67.4588 28.6659 67.1103 28.4058V26.1792H69.3931ZM19.8579 29.9798H46.6847V34.7288H25.1084C24.6935 33.5652 23.9969 32.5224 23.0807 31.6937C22.1645 30.865 21.0572 30.2761 19.8579 29.9798ZM3.50824 2.54959H46.6813V27.4302H3.50824V2.54959ZM7.12016 31.9821V29.9798H16.3242C15.1242 30.2756 14.0163 30.8643 13.0995 31.693C12.1826 32.5217 11.4855 33.5648 11.0703 34.7288H7.12016V31.9821ZM18.0902 42.1073C16.7923 42.106 15.548 41.5898 14.6302 40.6721C13.7125 39.7543 13.1963 38.51 13.195 37.2121C13.4652 30.7175 22.7135 30.7192 22.9854 37.2121C22.9841 38.51 22.4679 39.7543 21.5501 40.6721C20.6324 41.5898 19.3881 42.106 18.0902 42.1073ZM56.0417 42.1073C54.7438 42.106 53.4995 41.5898 52.5818 40.6721C51.664 39.7543 51.1478 38.51 51.1465 37.2121C51.415 30.7175 60.665 30.7192 60.9369 37.2121C60.9356 38.51 60.4194 39.7543 59.5017 40.6721C58.5839 41.5898 57.3396 42.106 56.0417 42.1073ZM68.4667 34.7288H63.0582C60.823 28.4143 51.9369 28.0795 49.2343 34.2036V8.7366C49.234 8.72021 49.2401 8.70436 49.2513 8.6924C49.2565 8.68635 49.263 8.68164 49.2704 8.67868C49.2778 8.67572 49.2859 8.67459 49.2938 8.6754H59.9885C63.5579 8.6754 68.5568 17.684 69.2197 23.633H65.8355C65.4974 23.633 65.1732 23.7673 64.9341 24.0064C64.695 24.2455 64.5607 24.5697 64.5607 24.9078V28.6353C64.5607 30.59 67.2956 31.4279 69.2707 31.7798C69.0582 33.5883 68.6911 34.4603 68.4667 34.7288Z" fill="#EC1C2E"/>
</svg>
