<svg width="52" height="69" viewBox="0 0 52 69" fill="none" xmlns="http://www.w3.org/2000/svg">
<path d="M22.8332 8.13733C25.6031 8.05465 28.435 8.50864 31.1837 9.56384C33.8083 10.5713 36.1224 12.0366 38.0696 13.8336M22.8332 8.13733C22.6221 8.98054 22.5799 10.9202 24.0999 11.9336C25.182 12.6551 24.8261 13.582 24.4361 14.5972C24.1415 15.3646 23.8273 16.1825 24.0999 17.0002C24.6239 18.5723 27.3159 17.543 29.3057 16.7821C29.7207 16.6233 30.1053 16.4762 30.4332 16.3669C31.0089 16.1751 31.7657 16.0995 32.5928 16.0168C34.4956 15.8267 36.7706 15.5994 38.0696 13.8336M22.8332 8.13733C20.6607 8.20219 18.5263 8.59721 16.4999 9.29129M38.0696 13.8336C39.86 15.4858 41.3405 17.4185 42.4673 19.5336M16.4999 9.29129C20.2999 11.9336 20.7003 18.3838 15.75 20.1669C10.7999 21.9501 11.4332 24.6002 12.0666 26.5002C12.3242 27.2734 13.5257 28.2562 14.7748 29.278C16.5957 30.7675 18.5178 32.3401 17.7666 33.4669C17.216 34.2929 16.3062 34.9992 15.3497 35.7418C14.1058 36.7075 12.7826 37.7349 12.0666 39.1669C10.7999 41.7002 7.63325 41.7002 7.63325 38.5336C7.63325 37.4561 7.85327 36.1586 8.09356 34.7409C8.55956 31.9923 9.1022 28.7918 8.26658 25.8669C8.17234 25.5372 8.0852 25.2285 8.00337 24.9389C6.98535 21.3359 6.80738 20.7061 4.46443 19.5336M16.4999 9.29129C11.4624 11.0168 7.09263 14.5903 4.46443 19.5336M42.4673 19.5336C45.2997 24.8499 45.8982 31.3186 43.5701 37.3838C43.4203 37.774 43.2604 38.1574 43.0908 38.5336M42.4673 19.5336C37.3999 18.2669 30.0344 19.5336 31.1837 22.7002C31.7426 24.2397 33.5438 24.5817 35.1703 24.8907C36.8896 25.2171 38.4138 25.5064 38.0696 27.1336C37.3999 30.3002 34.7494 30.3002 32.9666 28.4002C31.1837 26.5002 25.9999 27.1336 26.6332 31.5669C26.9191 33.5682 27.9793 34.408 28.8236 35.0766C29.8494 35.8892 30.5564 36.449 29.1666 38.5336C26.6332 42.3336 26.8677 46.7669 31.1837 44.2336C32.5215 43.4485 33.8079 42.2982 35.0596 41.179C37.8467 38.687 40.4622 36.3484 43.0908 38.5336M43.0908 38.5336C38.4343 48.8641 26.4625 53.8822 15.75 49.77C4.64746 45.5081 -0.898055 33.0527 3.36382 21.9501C3.68543 21.1123 4.05365 20.3062 4.46443 19.5336" stroke="#EC1C2E" stroke-width="2.53333"/>
<path d="M13.9409 54.4999L12.806 57.4562M13.9409 54.4999C17.0779 55.7041 20.3023 56.2745 23.4732 56.2739M13.9409 54.4999L15.6938 49.9333M23.4732 56.2739C34.1649 56.2717 44.2461 49.7773 48.3067 39.1992C50.6863 33.0001 51.0001 22.6611 45.306 14.4667C42.3682 10.2389 38.1746 6.81744 33.006 4.83341M23.4732 56.2739V61.9667M33.006 4.83341L34.1408 1.87708M33.006 4.83341L31.2531 9.39999M23.4732 61.9667H13.9732C11.8744 61.9667 10.1732 63.668 10.1732 65.7667V67.6667H23.4732H36.7732V65.7667C36.7732 63.668 35.0718 61.9667 32.9732 61.9667H23.4732Z" stroke="#EC1C2E" stroke-width="2.53333" stroke-linecap="round" stroke-linejoin="round"/>
</svg>
