<svg width="63" height="59" viewBox="0 0 63 59" fill="none" xmlns="http://www.w3.org/2000/svg">
<path d="M62.2912 16.5194C29.3474 -0.687437 31.7624 0.323187 30.8962 0.769437C-1.92945 17.8976 -7.58339e-05 16.5457 -7.58339e-05 17.6876C-7.58339e-05 18.8294 0.091799 18.5407 11.9043 24.6963C11.8124 25.0507 11.8124 24.0269 11.8124 37.3751C11.8174 37.6032 11.8818 37.826 11.9992 38.0216C12.1165 38.2173 12.2829 38.3789 12.4818 38.4907C14.6474 42.4676 22.0893 45.2501 31.4999 45.2501C35.9774 45.338 40.431 44.5764 44.6249 43.0057V48.1113C43.859 48.3821 43.1956 48.8831 42.7257 49.5458C42.2557 50.2084 42.0022 51.0002 41.9999 51.8126V57.0626C41.9999 57.4107 42.1382 57.7445 42.3843 57.9906C42.6305 58.2368 42.9643 58.3751 43.3124 58.3751H48.5624C48.9105 58.3751 49.2444 58.2368 49.4905 57.9906C49.7366 57.7445 49.8749 57.4107 49.8749 57.0626V51.8126C49.8726 51.0002 49.6192 50.2084 49.1492 49.5458C48.6792 48.8831 48.0158 48.3821 47.2499 48.1113V41.6932C49.7306 40.1576 51.1874 38.2282 51.1874 36.0626V24.6438C62.8818 18.5407 62.9999 18.8032 62.9999 17.6876C63.0004 17.4465 62.9346 17.2101 62.8095 17.004C62.6845 16.798 62.5052 16.6303 62.2912 16.5194ZM47.2499 55.7501H44.6249V51.8126C44.6249 51.4645 44.7632 51.1306 45.0093 50.8845C45.2555 50.6383 45.5893 50.5001 45.9374 50.5001C46.2855 50.5001 46.6194 50.6383 46.8655 50.8845C47.1116 51.1306 47.2499 51.4645 47.2499 51.8126V55.7501ZM14.4374 36.0626V26.0219C32.4843 35.4326 31.0406 34.7501 31.4999 34.7501C31.9593 34.7501 31.0931 35.1307 44.6249 28.0694V40.1313C33.5606 45.4338 14.4374 41.5619 14.4374 36.0626ZM48.5624 36.0626C48.5211 36.5299 48.3831 36.9836 48.1571 37.3948C47.9312 37.806 47.6223 38.1658 47.2499 38.4513V26.7044L48.5624 26.0219V36.0626ZM46.2787 24.2501L32.1299 16.5326C31.8236 16.3585 31.4607 16.3133 31.121 16.4068C30.7813 16.5003 30.4927 16.725 30.3187 17.0313C30.1446 17.3376 30.0994 17.7006 30.1929 18.0402C30.2865 18.3799 30.5111 18.6685 30.8174 18.8426L43.4174 25.7069L31.4999 31.9544L4.14742 17.6876L31.4999 3.42069L58.8524 17.6876L46.2787 24.2501Z" fill="#EC1C2E"/>
</svg>
