<svg width="71" height="71" viewBox="0 0 71 71" fill="none" xmlns="http://www.w3.org/2000/svg">
<path d="M3.32812 22.1875H4.4375C4.4375 23.3644 4.90502 24.4931 5.73721 25.3253C6.56941 26.1575 7.6981 26.625 8.875 26.625C10.0519 26.625 11.1806 26.1575 12.0128 25.3253C12.845 24.4931 13.3125 23.3644 13.3125 22.1875H26.625C26.625 23.3644 27.0925 24.4931 27.9247 25.3253C28.7569 26.1575 29.8856 26.625 31.0625 26.625C32.2394 26.625 33.3681 26.1575 34.2003 25.3253C35.0325 24.4931 35.5 23.3644 35.5 22.1875H36.6094C36.7788 22.1871 36.9459 22.1479 37.0978 22.0729C37.2497 21.9979 37.3824 21.8891 37.4858 21.7548C37.5893 21.6193 37.6602 21.4617 37.6929 21.2943C37.7256 21.1269 37.7192 20.9542 37.6744 20.7897L34.3462 8.58656C34.2831 8.352 34.1447 8.14465 33.9523 7.99635C33.7599 7.84804 33.5242 7.76699 33.2812 7.76562H27.7344V3.32812C27.7344 3.0339 27.6175 2.75173 27.4094 2.54368C27.2014 2.33563 26.9192 2.21875 26.625 2.21875H3.32812C3.0339 2.21875 2.75173 2.33563 2.54368 2.54368C2.33563 2.75173 2.21875 3.0339 2.21875 3.32812V21.0781C2.21875 21.3723 2.33563 21.6545 2.54368 21.8626C2.75173 22.0706 3.0339 22.1875 3.32812 22.1875ZM31.0625 24.4062C30.6237 24.4062 30.1947 24.2761 29.8298 24.0323C29.465 23.7885 29.1806 23.442 29.0126 23.0366C28.8447 22.6312 28.8008 22.185 28.8864 21.7546C28.972 21.3242 29.1833 20.9289 29.4936 20.6186C29.8039 20.3083 30.1992 20.097 30.6296 20.0114C31.06 19.9258 31.5062 19.9697 31.9116 20.1376C32.317 20.3056 32.6635 20.59 32.9073 20.9548C33.1511 21.3197 33.2812 21.7487 33.2812 22.1875C33.2812 22.7759 33.0475 23.3403 32.6314 23.7564C32.2153 24.1725 31.6509 24.4062 31.0625 24.4062ZM32.4381 9.98438L35.1561 19.9688H34.8787C34.5232 19.3659 34.0301 18.8556 33.4397 18.4797C32.8493 18.1038 32.1784 17.8729 31.4817 17.8059C30.785 17.7388 30.0823 17.8375 29.4311 18.0938C28.7798 18.3502 28.1984 18.757 27.7344 19.2809V9.98438H32.4381ZM8.875 24.4062C8.43617 24.4062 8.0072 24.2761 7.64233 24.0323C7.27746 23.7885 6.99307 23.442 6.82514 23.0366C6.65721 22.6312 6.61327 22.185 6.69888 21.7546C6.78449 21.3242 6.99581 20.9289 7.30611 20.6186C7.6164 20.3083 8.01175 20.097 8.44214 20.0114C8.87254 19.9258 9.31865 19.9697 9.72408 20.1376C10.1295 20.3056 10.476 20.59 10.7198 20.9548C10.9636 21.3197 11.0937 21.7487 11.0937 22.1875C11.0937 22.7759 10.86 23.3403 10.4439 23.7564C10.0278 24.1725 9.46345 24.4062 8.875 24.4062ZM4.4375 4.4375H25.5156V19.9688H12.6912C12.2983 19.3066 11.7399 18.758 11.0708 18.377C10.4017 17.996 9.64497 17.7957 8.875 17.7957C8.10503 17.7957 7.34831 17.996 6.67921 18.377C6.01011 18.758 5.45166 19.3066 5.05875 19.9688H4.4375V4.4375Z" fill="#EC1C2E"/>
<path d="M7.76562 21.0781H9.98438V23.2969H7.76562V21.0781ZM29.9531 21.0781H32.1719V23.2969H29.9531V21.0781ZM14.4219 7.76562H23.2969V9.98438H14.4219V7.76562ZM9.98438 12.2031H23.2969V14.4219H9.98438V12.2031ZM25.3048 35.1894C24.8299 35.8743 24.5291 36.6646 24.4286 37.492C24.328 38.3194 24.4308 39.1588 24.728 39.9375L26.4808 44.608C23.8405 45.0184 22.1875 46.1833 22.1875 47.7031C22.1875 49.9884 25.6377 51.0312 28.8438 51.0312C32.0498 51.0312 35.5 49.9884 35.5 47.7031C35.5 46.1833 33.847 45.0184 31.1956 44.5747L32.9595 39.9375C33.251 39.1634 33.3507 38.3302 33.2503 37.5092C33.1498 36.6882 32.8521 35.9037 32.3827 35.2227C31.9967 34.6368 31.4713 34.1559 30.8536 33.8231C30.236 33.4904 29.5453 33.3162 28.8438 33.3162C28.1422 33.3162 27.4515 33.4904 26.8339 33.8231C26.2162 34.1559 25.6908 34.6368 25.3048 35.2227V35.1894ZM28.8438 48.8125C26.2478 48.8125 24.728 48.0692 24.4062 47.7031C25.2263 47.082 26.2182 46.7295 27.2463 46.6936L27.7677 48.0914C27.8454 48.3056 27.9872 48.4906 28.1737 48.6214C28.3603 48.7521 28.5826 48.8223 28.8105 48.8223C29.0383 48.8223 29.2606 48.7521 29.4472 48.6214C29.6338 48.4906 29.7755 48.3056 29.8533 48.0914L30.3747 46.6936C31.4257 46.7157 32.4429 47.069 33.2812 47.7031C32.9595 48.0692 31.4397 48.8125 28.8438 48.8125ZM27.1242 36.4541C27.3069 36.163 27.5605 35.923 27.8613 35.7567C28.162 35.5904 28.5001 35.5031 28.8438 35.5031C29.1874 35.5031 29.5255 35.5904 29.8262 35.7567C30.127 35.923 30.3806 36.163 30.5633 36.4541C30.8276 36.8413 30.994 37.2869 31.0481 37.7526C31.1022 38.2183 31.0425 38.6902 30.8739 39.1277L28.8438 44.5414L26.8136 39.1277C26.645 38.6902 26.5853 38.2183 26.6394 37.7526C26.6935 37.2869 26.8599 36.8413 27.1242 36.4541ZM41.0469 32.1719C41.0469 34.4572 44.497 35.5 47.7031 35.5C50.9092 35.5 54.3594 34.4572 54.3594 32.1719C54.3594 30.652 52.7064 29.4872 50.055 29.0434L51.8078 24.4062C52.1046 23.6356 52.2082 22.804 52.1096 21.984C52.011 21.1641 51.7131 20.3808 51.242 19.7025C50.8578 19.1142 50.3331 18.631 49.7152 18.2965C49.0973 17.9621 48.4057 17.7869 47.7031 17.7869C47.0005 17.7869 46.309 17.9621 45.6911 18.2965C45.0732 18.631 44.5484 19.1142 44.1642 19.7025C43.6931 20.3808 43.3953 21.1641 43.2966 21.984C43.198 22.804 43.3016 23.6356 43.5984 24.4062L45.3512 29.0767C42.6998 29.4872 41.0469 30.652 41.0469 32.1719ZM45.9836 20.9228C46.1663 20.6317 46.4199 20.3918 46.7206 20.2255C47.0214 20.0591 47.3595 19.9719 47.7031 19.9719C48.0468 19.9719 48.3848 20.0591 48.6856 20.2255C48.9864 20.3918 49.24 20.6317 49.4227 20.9228C49.6843 21.3091 49.8492 21.7527 49.9032 22.2161C49.9573 22.6795 49.899 23.1492 49.7333 23.5853L47.7031 29.0102L45.673 23.5853C45.5072 23.1492 45.449 22.6795 45.503 22.2161C45.5571 21.7527 45.7219 21.3091 45.9836 20.9228ZM46.1389 31.1623L46.6603 32.5602C46.738 32.7743 46.8798 32.9594 47.0664 33.0901C47.253 33.2209 47.4753 33.291 47.7031 33.291C47.931 33.291 48.1533 33.2209 48.3398 33.0901C48.5264 32.9594 48.6682 32.7743 48.7459 32.5602L49.2673 31.1623C50.3069 31.1914 51.3114 31.5443 52.1406 32.1719C51.8522 32.538 50.3323 33.2812 47.7031 33.2812C45.0739 33.2812 43.5873 32.538 43.2656 32.1719C44.0949 31.5443 45.0994 31.1914 46.1389 31.1623ZM52.1406 65.4531C52.1406 67.7384 55.5908 68.7812 58.7969 68.7812C62.003 68.7812 65.4531 67.7384 65.4531 65.4531C65.4531 63.9333 63.8002 62.7684 61.1488 62.3247L62.9016 57.6875C63.1984 56.9168 63.302 56.0852 63.2034 55.2653C63.1047 54.4454 62.8069 53.662 62.3358 52.9837C61.9516 52.3955 61.4268 51.9122 60.8089 51.5778C60.191 51.2433 59.4995 51.0682 58.7969 51.0682C58.0943 51.0682 57.4027 51.2433 56.7848 51.5778C56.1669 51.9122 55.6422 52.3955 55.258 52.9837C54.7869 53.662 54.489 54.4454 54.3904 55.2653C54.2918 56.0852 54.3954 56.9168 54.6922 57.6875L56.445 62.358C53.7936 62.7684 52.1406 63.9333 52.1406 65.4531ZM57.0773 54.2041C57.26 53.913 57.5136 53.673 57.8144 53.5067C58.1152 53.3404 58.4532 53.2531 58.7969 53.2531C59.1405 53.2531 59.4786 53.3404 59.7794 53.5067C60.0801 53.673 60.3337 53.913 60.5164 54.2041C60.7781 54.5903 60.9429 55.0339 60.997 55.4974C61.051 55.9608 60.9928 56.4304 60.827 56.8666L58.7969 62.2914L56.7667 56.8666C56.601 56.4304 56.5427 55.9608 56.5968 55.4974C56.6508 55.0339 56.8157 54.5903 57.0773 54.2041ZM57.2327 64.4436L57.7541 65.8414C57.8318 66.0556 57.9736 66.2406 58.1602 66.3714C58.3467 66.5021 58.569 66.5723 58.7969 66.5723C59.0247 66.5723 59.247 66.5021 59.4336 66.3714C59.6202 66.2406 59.762 66.0556 59.8397 65.8414L60.3611 64.4436C61.4006 64.4726 62.4051 64.8256 63.2344 65.4531C62.9459 65.8192 61.4261 66.5625 58.7969 66.5625C56.1677 66.5625 54.6811 65.8192 54.3594 65.4531C55.1886 64.8256 56.1931 64.4726 57.2327 64.4436ZM47.7031 66.5625H49.9219V64.3438H47.7031C46.8204 64.3438 45.9739 63.9931 45.3498 63.369C44.7256 62.7448 44.375 61.8983 44.375 61.0156V52.1406C44.375 50.6695 43.7906 49.2586 42.7504 48.2184C41.7101 47.1782 40.2992 46.5938 38.8281 46.5938H37.7188V48.8125H38.8281C39.7108 48.8125 40.5573 49.1631 41.1815 49.7873C41.8056 50.4114 42.1562 51.2579 42.1562 52.1406V61.0156C42.1562 62.4867 42.7407 63.8976 43.7809 64.9379C44.8211 65.9781 46.232 66.5625 47.7031 66.5625Z" fill="#EC1C2E"/>
<path d="M11.0938 48.8125H19.9688V46.5938H11.0938C9.3284 46.5938 7.63536 45.8925 6.38707 44.6442C5.13878 43.3959 4.4375 41.7028 4.4375 39.9375C4.4375 38.1722 5.13878 36.4791 6.38707 35.2308C7.63536 33.9825 9.3284 33.2812 11.0938 33.2812H38.8281V31.0625H11.0938C8.73995 31.0625 6.48256 31.9975 4.81818 33.6619C3.15379 35.3263 2.21875 37.5837 2.21875 39.9375C2.21875 42.2913 3.15379 44.5487 4.81818 46.2131C6.48256 47.8775 8.73995 48.8125 11.0938 48.8125ZM66.5625 24.4062C66.5625 26.1716 65.8612 27.8646 64.6129 29.1129C63.3646 30.3612 61.6716 31.0625 59.9062 31.0625H56.5781V33.2812H59.9062C62.26 33.2812 64.5174 32.3462 66.1818 30.6818C67.8462 29.0174 68.7812 26.76 68.7812 24.4062C68.7812 22.0525 67.8462 19.7951 66.1818 18.1307C64.5174 16.4663 62.26 15.5313 59.9062 15.5312H47.7031V17.75H59.9062C61.6716 17.75 63.3646 18.4513 64.6129 19.6996C65.8612 20.9479 66.5625 22.6409 66.5625 24.4062ZM38.8281 15.5312H41.0469V17.75H38.8281V15.5312ZM43.2656 15.5312H45.4844V17.75H43.2656V15.5312ZM14.4219 56.5781C14.4219 58.0492 15.0063 59.4601 16.0465 60.5004C17.0868 61.5406 18.4976 62.125 19.9688 62.125H22.1875V59.9062H19.9688C19.0861 59.9062 18.2396 59.5556 17.6154 58.9315C16.9913 58.3073 16.6406 57.4608 16.6406 56.5781V55.4688H14.4219V56.5781ZM37.7188 59.9062H39.9375V62.125H37.7188V59.9062ZM14.4219 26.625H16.6406V28.8438H14.4219V26.625ZM14.4219 51.0312H16.6406V53.25H14.4219V51.0312Z" fill="#EC1C2E"/>
<path d="M14.4219 43.2656H16.6406V45.4844H14.4219V43.2656ZM14.4219 38.8281H16.6406V41.0469H14.4219V38.8281ZM14.4219 34.3906H16.6406V36.6094H14.4219V34.3906ZM24.4062 59.9062H26.625V62.125H24.4062V59.9062ZM28.8438 59.9062H31.0625V62.125H28.8438V59.9062ZM33.2812 59.9062H35.5V62.125H33.2812V59.9062Z" fill="#EC1C2E"/>
</svg>
