<svg width="76" height="69" viewBox="0 0 76 69" fill="none" xmlns="http://www.w3.org/2000/svg">
<path d="M37.8183 18.6455C41.2456 18.6455 44.082 15.8091 44.082 12.2636C44.082 8.83636 41.2456 6 37.8183 6C34.3911 6 31.5547 8.83636 31.5547 12.2636C31.5547 15.8091 34.3911 18.6455 37.8183 18.6455ZM37.8183 8.36364C39.9456 8.36364 41.7183 10.1364 41.7183 12.2636C41.7183 14.5091 39.9456 16.2818 37.8183 16.2818C35.6911 16.2818 33.9183 14.5091 33.9183 12.2636C33.9183 10.1364 35.6911 8.36364 37.8183 8.36364Z" fill="#EC1C2E"/>
<path d="M1.18182 68.7523H74.4545C75.1636 68.7523 75.6364 68.2795 75.6364 67.5705C75.6364 66.8614 75.1636 66.3886 74.4545 66.3886H72.2091V16.0432C72.2091 15.5705 71.9727 15.0977 71.5 14.9795L38.2909 0.0886364C37.9364 -0.0295455 37.5818 -0.0295455 37.3455 0.0886364L4.13636 14.8614C3.66364 15.0977 3.42727 15.4523 3.42727 15.925V66.2705H1.18182C0.472727 66.2705 0 66.7432 0 67.4523C0 68.1614 0.472727 68.7523 1.18182 68.7523ZM36.6364 66.3886H19.6182V50.5523H24.2273V54.6886C24.2273 55.1614 24.4636 55.5159 24.8182 55.7523C25.1727 55.9886 25.6455 55.9886 26 55.7523L28.2455 54.4523L30.4909 55.7523C30.6091 55.8705 30.8455 55.8705 31.0818 55.8705C31.3182 55.8705 31.4364 55.7523 31.6727 55.7523C32.0273 55.5159 32.2636 55.1614 32.2636 54.6886V50.5523H36.6364V66.3886ZM34.3909 37.5523C34.6273 37.6705 34.7455 37.6705 34.9818 37.6705C35.2182 37.6705 35.3364 37.6705 35.5727 37.5523L37.8182 36.2523L40.0636 37.5523C40.4182 37.7886 40.8909 37.7886 41.2455 37.5523C41.6 37.3159 41.8364 36.9614 41.8364 36.4886V32.3523H46.4454V48.1886H29.4273V32.3523H33.9182V36.4886C33.8 36.9614 34.0364 37.3159 34.3909 37.5523ZM36.1636 34.4795V32.3523H39.3545V34.4795L38.2909 33.8886C37.9364 33.6523 37.4636 33.6523 37.1091 33.8886L36.1636 34.4795ZM49.1636 50.5523V52.6796L48.1 52.0886C47.7455 51.8523 47.2727 51.8523 46.9182 52.0886L45.8545 52.6796V50.5523H49.1636ZM29.7818 50.5523V52.6796L28.7182 52.0886C28.3636 51.8523 27.8909 51.8523 27.5364 52.0886L26.4727 52.6796V50.5523H29.7818ZM56.0182 66.3886H39V50.5523H43.6091V54.6886C43.6091 55.1614 43.8455 55.5159 44.2 55.7523C44.5545 55.9886 45.0273 55.9886 45.3818 55.7523L47.6273 54.4523L49.7545 55.7523C49.9909 55.8705 50.1091 55.8705 50.3455 55.8705C50.5818 55.8705 50.8182 55.7523 50.9364 55.7523C51.2909 55.5159 51.5273 55.1614 51.5273 54.6886V50.5523H56.1364V66.3886H56.0182ZM62.2818 66.3886H58.3818V49.3705C58.3818 49.0159 58.2636 48.7795 58.0273 48.5432C57.7909 48.3068 57.5545 48.1886 57.2 48.1886H48.6909V31.1705C48.6909 30.8159 48.5727 30.5795 48.3364 30.3432C48.1 30.1068 47.8636 29.9886 47.5091 29.9886H28.1273C27.4182 29.9886 26.9455 30.5795 26.9455 31.1705V48.1886H18.4364C18.0818 48.1886 17.8455 48.3068 17.6091 48.5432C17.3727 48.7795 17.2545 49.0159 17.2545 49.3705V66.3886H13.3545V24.4341H62.4V66.3886H62.2818ZM5.79091 16.7523L37.8182 2.45227L69.8455 16.7523V66.3886H64.7636V23.2523C64.7636 22.5432 64.2909 22.0705 63.5818 22.0705H12.1727C11.5818 22.0705 10.9909 22.5432 10.9909 23.2523V66.3886H5.79091V16.7523Z" fill="#EC1C2E"/>
</svg>
